<svg width="24" height="24" viewBox="0 0 24 24" fill="none" xmlns="http://www.w3.org/2000/svg">
<path d="M9.05859 4.66001C9.05859 4.33514 9.32196 4.07178 9.64683 4.07178H14.3527C14.6776 4.07178 14.9409 4.33514 14.9409 4.66001V16.7188L12.5068 20.8569C12.2793 21.2436 11.7202 21.2436 11.4927 20.8569L9.05859 16.7188V4.66001Z" fill="#D5EFF2"/>
<path d="M16.1177 4.66001C16.1177 4.33514 16.381 4.07178 16.7059 4.07178H21.4118C21.7367 4.07178 22 4.33514 22 4.66001V14.66C22 14.9849 21.7367 15.2482 21.4118 15.2482H20.5294C18.0929 15.2482 16.1177 13.273 16.1177 10.8365V4.66001Z" fill="#D5EFF2"/>
<path d="M7.88232 4.66001C7.88232 4.33514 7.61896 4.07178 7.29409 4.07178H2.58821C2.26333 4.07178 1.99997 4.33514 1.99997 4.66001V14.66C1.99997 14.9849 2.26333 15.2482 2.58821 15.2482H3.47056C5.90711 15.2482 7.88232 13.273 7.88232 10.8365V4.66001Z" fill="#D5EFF2"/>
</svg>
